<?xml version="1.0" encoding="iso-8859-1"?>
<!-- Generator: Adobe Illustrator 19.0.0, SVG Export Plug-In . SVG Version: 6.00 Build 0)  -->
<svg version="1.1" id="Capa_1" xmlns="http://www.w3.org/2000/svg" xmlns:xlink="http://www.w3.org/1999/xlink" x="0px" y="0px"
	 viewBox="0 0 512 512" style="enable-background:new 0 0 512 512;" xml:space="preserve">
<path style="fill:#06AAE9;" d="M256.009,397.237c-78.007,0-141.237-63.23-141.237-141.237s63.23-141.237,141.237-141.237V0.009
	C114.622,0,0.009,114.605,0,255.982s114.596,256,255.974,256.009c28.256,0,56.318-4.678,83.047-13.841l-37.251-108.646
	C287.054,394.597,271.589,397.21,256.009,397.237L256.009,397.237z"/>
<path style="fill:#39B54A;" d="M397.245,256H512C512,114.622,397.387,0.009,256.009,0.009v114.755
	C334.007,114.764,397.245,177.993,397.245,256z"/>
<path style="fill:#FBB03B;" d="M355.881,355.872l81.14,81.14C485.103,389.054,512.088,323.908,512,256H397.245
	C397.29,293.463,382.407,329.408,355.881,355.872z"/>
<path style="fill:#ED1C24;" d="M355.881,355.872c-15.236,15.183-33.747,26.685-54.102,33.632l37.251,108.646
	c36.889-12.649,70.406-33.561,97.983-61.138L355.881,355.872z"/>
<g>
	<path style="fill:#29485A;" d="M0.018,0.009h70.618v17.655H0.018L0.018,0.009z"/>
	<path style="fill:#29485A;" d="M0.018,35.318h70.618v17.655H0.018L0.018,35.318z"/>
	<path style="fill:#29485A;" d="M432.554,0.009H512v17.655h-79.446V0.009z"/>
	<path style="fill:#29485A;" d="M273.663,185.382h79.446v17.655h-79.446V185.382z"/>
	<path style="fill:#29485A;" d="M273.663,220.691h79.446v17.655h-79.446V220.691z"/>
	<path style="fill:#29485A;" d="M273.663,256h79.446v17.655h-79.446V256z"/>
	<path style="fill:#29485A;" d="M79.463,503.164H0.018v-17.655h75.129l64.563-82.976l13.903,10.813l-67.176,86.41
		C84.76,501.911,82.182,503.164,79.463,503.164z"/>
	<path style="fill:#29485A;" d="M141.254,432.546c-9.754,0-17.655-7.9-17.655-17.655s7.9-17.655,17.655-17.655
		c9.754,0,17.655,7.9,17.655,17.655S150.999,432.546,141.254,432.546z"/>
</g>
<g>
</g>
<g>
</g>
<g>
</g>
<g>
</g>
<g>
</g>
<g>
</g>
<g>
</g>
<g>
</g>
<g>
</g>
<g>
</g>
<g>
</g>
<g>
</g>
<g>
</g>
<g>
</g>
<g>
</g>
</svg>
