<svg id="Capa_1" enable-background="new 0 0 411.595 411.595" height="512" viewBox="0 0 411.595 411.595" width="512" xmlns="http://www.w3.org/2000/svg"><g><g><path d="m80.492 116.425h57.401v237.213h-57.401z" fill="#fcd462"/><path d="m80.492 116.425h17.357v237.213h-17.357z" fill="#f7be56"/><path d="m161.339 163.522h57.401v190.116h-57.401z" fill="#27a2db"/><path d="m161.339 163.522h17.357v190.116h-17.357z" fill="#2d93ba"/><path d="m242.238 69.632h57.401v284.006h-57.401z" fill="#e56353"/><path d="m242.238 69.632h17.357v284.006h-17.357z" fill="#d15241"/><path d="m323.085 211.635h57.401v142.003h-57.401z" fill="#44c4a1"/><path d="m323.085 211.635h17.357v142.003h-17.357z" fill="#3ea69b"/><g fill="#e1e6e9"><path d="m65.419 353.637v-322.17h-8.983v322.17 8.678h8.983 346.176v-8.678z"/><path d="m84.248 372.77h13.956v7.359h-13.956z"/><path d="m102.873 372.77h13.956v7.359h-13.956z"/><path d="m121.5 372.77h13.956v7.359h-13.956z"/><path d="m164.436 372.77h13.956v7.359h-13.956z"/><path d="m183.061 372.77h13.956v7.359h-13.956z"/><path d="m201.687 372.77h13.956v7.359h-13.956z"/><path d="m244.623 372.77h14.007v7.359h-14.007z"/><path d="m263.249 372.77h13.956v7.359h-13.956z"/><path d="m281.874 372.77h13.956v7.359h-13.956z"/><path d="m324.81 372.77h14.007v7.359h-14.007z"/><path d="m343.437 372.77h13.956v7.359h-13.956z"/><path d="m362.062 372.77h13.956v7.359h-13.956z"/><path d="m0 44.61h33.141v6.8h-33.141z"/><path d="m0 86.988h33.141v6.8h-33.141z"/><path d="m0 129.365h33.141v6.8h-33.141z"/><path d="m0 171.794h33.141v6.8h-33.141z"/><path d="m0 214.172h33.141v6.8h-33.141z"/><path d="m0 256.6h33.141v6.8h-33.141z"/><path d="m0 298.978h33.141v6.8h-33.141z"/><path d="m0 341.356h33.141v6.8h-33.141z"/></g></g></g></svg>