<?xml version="1.0" encoding="UTF-8" standalone="no"?>
<!DOCTYPE svg PUBLIC "-//W3C//DTD SVG 1.1//EN" "http://www.w3.org/Graphics/SVG/1.1/DTD/svg11.dtd">
<svg width="100%" height="100%" viewBox="0 0 975 975" version="1.1" xmlns="http://www.w3.org/2000/svg" xmlns:xlink="http://www.w3.org/1999/xlink" xml:space="preserve" xmlns:serif="http://www.serif.com/" style="fill-rule:evenodd;clip-rule:evenodd;">
    <g transform="matrix(1.14335,0,0,1.14335,7.13132,-5.28259)">
        <path d="M420,16.512C647.381,16.512 834.488,203.619 834.488,431C834.488,436.047 834.396,441.094 834.211,446.138L689.237,440.84C689.357,437.561 689.417,434.281 689.417,431C689.417,283.202 567.798,161.583 420,161.583L420,16.512Z" style="fill:rgb(0,143,251);fill-rule:nonzero;stroke:white;stroke-width:2px;"/>
        <path d="M834.211,446.138C826.115,667.661 641.671,845.488 420,845.488C354.081,845.488 289.103,829.762 230.479,799.621L296.811,670.604C334.917,690.196 377.153,700.417 420,700.417C564.086,700.417 683.975,584.83 689.237,440.84L834.211,446.138Z" style="fill:rgb(0,227,150);fill-rule:nonzero;stroke:white;stroke-width:2px;"/>
        <path d="M230.479,799.621C38.393,700.864 -45.945,467.674 38.528,268.892L172.043,325.63C117.136,454.838 171.956,606.411 296.811,670.604L230.479,799.621Z" style="fill:rgb(254,176,25);fill-rule:nonzero;stroke:white;stroke-width:2px;"/>
        <path d="M38.528,268.892C72.352,189.297 130.254,122.249 204.077,77.196L279.65,201.027C231.665,230.312 194.029,273.893 172.043,325.63L38.528,268.892Z" style="fill:rgb(255,72,99);fill-rule:nonzero;stroke:white;stroke-width:2px;"/>
        <path d="M204.077,77.196C269.08,37.525 343.775,16.525 419.928,16.512L419.953,161.583C370.454,161.592 321.902,175.241 279.65,201.027L204.077,77.196Z" style="fill:rgb(119,93,208);fill-rule:nonzero;stroke:white;stroke-width:2px;"/>
        <g transform="matrix(1,0,0,1,666.173,193.66)">
            <path d="M-43.655,0C-43.553,-1.896 -43.161,-3.546 -42.479,-4.951C-41.798,-6.355 -40.468,-7.631 -38.489,-8.779L-35.538,-10.485C-34.215,-11.254 -33.288,-11.91 -32.755,-12.453C-31.914,-13.304 -31.494,-14.278 -31.494,-15.374C-31.494,-16.655 -31.879,-17.673 -32.647,-18.426C-33.416,-19.179 -34.441,-19.556 -35.722,-19.556C-37.618,-19.556 -38.93,-18.839 -39.658,-17.404C-40.047,-16.635 -40.263,-15.569 -40.304,-14.206L-43.117,-14.206C-43.086,-16.122 -42.733,-17.686 -42.056,-18.895C-40.857,-21.027 -38.741,-22.093 -35.707,-22.093C-33.185,-22.093 -31.343,-21.411 -30.18,-20.048C-29.016,-18.685 -28.435,-17.168 -28.435,-15.497C-28.435,-13.734 -29.055,-12.228 -30.295,-10.977C-31.012,-10.25 -32.299,-9.368 -34.154,-8.333L-36.26,-7.164C-37.265,-6.611 -38.054,-6.083 -38.628,-5.581C-39.653,-4.689 -40.299,-3.7 -40.565,-2.614L-28.542,-2.614L-28.542,0L-43.655,0Z" style="fill:white;fill-rule:nonzero;"/>
            <path d="M-23.238,-5.612C-23.054,-4.033 -22.321,-2.942 -21.04,-2.337C-20.384,-2.029 -19.625,-1.876 -18.764,-1.876C-17.124,-1.876 -15.91,-2.398 -15.121,-3.444C-14.331,-4.489 -13.937,-5.647 -13.937,-6.918C-13.937,-8.456 -14.406,-9.645 -15.344,-10.485C-16.281,-11.326 -17.406,-11.746 -18.718,-11.746C-19.671,-11.746 -20.489,-11.561 -21.17,-11.192C-21.852,-10.823 -22.434,-10.311 -22.915,-9.655L-25.314,-9.793L-23.638,-21.647L-12.199,-21.647L-12.199,-18.972L-21.562,-18.972L-22.5,-12.853C-21.988,-13.242 -21.501,-13.534 -21.04,-13.729C-20.22,-14.067 -19.272,-14.237 -18.195,-14.237C-16.176,-14.237 -14.465,-13.586 -13.06,-12.284C-11.656,-10.982 -10.954,-9.332 -10.954,-7.334C-10.954,-5.253 -11.597,-3.418 -12.884,-1.83C-14.17,-0.241 -16.222,0.553 -19.041,0.553C-20.835,0.553 -22.421,0.049 -23.799,-0.961C-25.178,-1.97 -25.949,-3.521 -26.113,-5.612L-23.238,-5.612Z" style="fill:white;fill-rule:nonzero;"/>
            <rect x="-6.926" y="-3.352" width="3.213" height="3.352" style="fill:white;fill-rule:nonzero;"/>
            <path d="M8.341,-22.108C10.8,-22.108 12.515,-21.47 13.483,-20.194C14.452,-18.918 14.936,-17.604 14.936,-16.251L12.199,-16.251C12.035,-17.122 11.774,-17.803 11.415,-18.295C10.749,-19.218 9.74,-19.679 8.387,-19.679C6.839,-19.679 5.609,-18.964 4.697,-17.534C3.785,-16.105 3.277,-14.057 3.175,-11.392C3.81,-12.325 4.61,-13.022 5.573,-13.483C6.455,-13.893 7.439,-14.098 8.525,-14.098C10.37,-14.098 11.979,-13.509 13.353,-12.33C14.726,-11.151 15.413,-9.394 15.413,-7.057C15.413,-5.058 14.762,-3.288 13.46,-1.745C12.158,-0.202 10.303,0.569 7.895,0.569C5.835,0.569 4.056,-0.213 2.56,-1.776C1.063,-3.339 0.315,-5.97 0.315,-9.67C0.315,-12.407 0.648,-14.729 1.314,-16.635C2.596,-20.284 4.938,-22.108 8.341,-22.108ZM8.141,-1.891C9.596,-1.891 10.685,-2.38 11.408,-3.359C12.13,-4.338 12.492,-5.494 12.492,-6.826C12.492,-7.954 12.169,-9.027 11.523,-10.047C10.877,-11.067 9.704,-11.577 8.002,-11.577C6.813,-11.577 5.77,-11.182 4.874,-10.393C3.977,-9.604 3.528,-8.415 3.528,-6.826C3.528,-5.432 3.936,-4.261 4.751,-3.313C5.565,-2.365 6.695,-1.891 8.141,-1.891Z" style="fill:white;fill-rule:nonzero;"/>
            <path d="M38.105,-10.7C39.581,-10.7 40.842,-10.178 41.887,-9.132C42.933,-8.087 43.455,-6.826 43.455,-5.35C43.455,-3.874 42.933,-2.614 41.887,-1.568C40.842,-0.523 39.581,0 38.105,0C36.619,0 35.353,-0.523 34.308,-1.568C33.262,-2.614 32.74,-3.874 32.74,-5.35C32.74,-6.826 33.262,-8.087 34.308,-9.132C35.353,-10.178 36.619,-10.7 38.105,-10.7ZM35.876,-21.924L37.582,-21.924L25.268,0.584L23.561,0.584L35.876,-21.924ZM23.008,-12.822C23.889,-12.822 24.64,-13.132 25.26,-13.752C25.88,-14.372 26.19,-15.118 26.19,-15.989C26.19,-16.86 25.88,-17.606 25.26,-18.226C24.64,-18.846 23.889,-19.156 23.008,-19.156C22.136,-19.156 21.391,-18.849 20.771,-18.234C20.151,-17.619 19.84,-16.871 19.84,-15.989C19.84,-15.118 20.151,-14.372 20.771,-13.752C21.391,-13.132 22.136,-12.822 23.008,-12.822ZM23.008,-21.355C24.494,-21.355 25.76,-20.83 26.805,-19.779C27.85,-18.728 28.373,-17.465 28.373,-15.989C28.373,-14.513 27.85,-13.253 26.805,-12.207C25.76,-11.162 24.494,-10.639 23.008,-10.639C21.532,-10.639 20.271,-11.162 19.226,-12.207C18.18,-13.253 17.657,-14.513 17.657,-15.989C17.657,-17.465 18.18,-18.728 19.226,-19.779C20.271,-20.83 21.532,-21.355 23.008,-21.355ZM38.105,-2.183C38.976,-2.183 39.722,-2.493 40.342,-3.113C40.962,-3.733 41.272,-4.479 41.272,-5.35C41.272,-6.221 40.962,-6.967 40.342,-7.587C39.722,-8.207 38.976,-8.517 38.105,-8.517C37.224,-8.517 36.473,-8.207 35.853,-7.587C35.233,-6.967 34.923,-6.221 34.923,-5.35C34.923,-4.479 35.233,-3.733 35.853,-3.113C36.473,-2.493 37.224,-2.183 38.105,-2.183Z" style="fill:white;fill-rule:nonzero;"/>
        </g>
        <g transform="matrix(1,0,0,1,592.776,726.093)">
            <path d="M-36.46,0.6C-39.063,0.6 -40.952,-0.115 -42.125,-1.545C-43.299,-2.975 -43.886,-4.715 -43.886,-6.765L-40.995,-6.765C-40.872,-5.34 -40.606,-4.305 -40.196,-3.659C-39.479,-2.501 -38.182,-1.922 -36.306,-1.922C-34.851,-1.922 -33.682,-2.311 -32.801,-3.09C-31.92,-3.869 -31.479,-4.874 -31.479,-6.104C-31.479,-7.621 -31.943,-8.681 -32.87,-9.286C-33.798,-9.891 -35.087,-10.193 -36.737,-10.193C-36.921,-10.193 -37.108,-10.191 -37.298,-10.185C-37.488,-10.18 -37.68,-10.173 -37.875,-10.162L-37.875,-12.607C-37.588,-12.576 -37.347,-12.556 -37.152,-12.545C-36.957,-12.535 -36.747,-12.53 -36.522,-12.53C-35.486,-12.53 -34.636,-12.694 -33.969,-13.022C-32.801,-13.596 -32.217,-14.621 -32.217,-16.097C-32.217,-17.194 -32.606,-18.039 -33.385,-18.634C-34.164,-19.228 -35.071,-19.525 -36.106,-19.525C-37.951,-19.525 -39.227,-18.91 -39.935,-17.68C-40.324,-17.004 -40.545,-16.04 -40.596,-14.79L-43.332,-14.79C-43.332,-16.43 -43.004,-17.824 -42.348,-18.972C-41.221,-21.022 -39.238,-22.047 -36.399,-22.047C-34.154,-22.047 -32.417,-21.547 -31.187,-20.548C-29.957,-19.548 -29.342,-18.101 -29.342,-16.204C-29.342,-14.852 -29.706,-13.755 -30.433,-12.914C-30.884,-12.392 -31.469,-11.982 -32.186,-11.684C-31.028,-11.367 -30.123,-10.754 -29.472,-9.847C-28.822,-8.94 -28.496,-7.831 -28.496,-6.519C-28.496,-4.418 -29.188,-2.706 -30.572,-1.384C-31.955,-0.061 -33.918,0.6 -36.46,0.6Z" style="fill:white;fill-rule:nonzero;"/>
            <path d="M-26.144,0C-26.041,-1.896 -25.649,-3.546 -24.968,-4.951C-24.286,-6.355 -22.956,-7.631 -20.978,-8.779L-18.026,-10.485C-16.704,-11.254 -15.777,-11.91 -15.244,-12.453C-14.403,-13.304 -13.983,-14.278 -13.983,-15.374C-13.983,-16.655 -14.367,-17.673 -15.136,-18.426C-15.905,-19.179 -16.93,-19.556 -18.211,-19.556C-20.107,-19.556 -21.419,-18.839 -22.147,-17.404C-22.536,-16.635 -22.751,-15.569 -22.792,-14.206L-25.606,-14.206C-25.575,-16.122 -25.221,-17.686 -24.545,-18.895C-23.346,-21.027 -21.229,-22.093 -18.195,-22.093C-15.674,-22.093 -13.832,-21.411 -12.668,-20.048C-11.505,-18.685 -10.923,-17.168 -10.923,-15.497C-10.923,-13.734 -11.544,-12.228 -12.784,-10.977C-13.501,-10.25 -14.787,-9.368 -16.643,-8.333L-18.749,-7.164C-19.753,-6.611 -20.543,-6.083 -21.117,-5.581C-22.142,-4.689 -22.787,-3.7 -23.054,-2.614L-11.031,-2.614L-11.031,0L-26.144,0Z" style="fill:white;fill-rule:nonzero;"/>
            <rect x="-6.926" y="-3.352" width="3.213" height="3.352" style="fill:white;fill-rule:nonzero;"/>
            <path d="M7.649,-22.016C10.498,-22.016 12.558,-20.842 13.829,-18.495C14.813,-16.681 15.305,-14.196 15.305,-11.039C15.305,-8.046 14.859,-5.571 13.968,-3.613C12.676,-0.805 10.565,0.6 7.633,0.6C4.989,0.6 3.021,-0.548 1.73,-2.844C0.653,-4.761 0.115,-7.334 0.115,-10.562C0.115,-13.063 0.438,-15.21 1.084,-17.004C2.293,-20.345 4.482,-22.016 7.649,-22.016ZM7.618,-1.922C9.053,-1.922 10.196,-2.557 11.046,-3.828C11.897,-5.099 12.322,-7.467 12.322,-10.931C12.322,-13.432 12.015,-15.49 11.4,-17.104C10.785,-18.718 9.591,-19.525 7.818,-19.525C6.188,-19.525 4.997,-18.759 4.243,-17.227C3.49,-15.695 3.113,-13.437 3.113,-10.455C3.113,-8.21 3.354,-6.406 3.836,-5.043C4.574,-2.962 5.835,-1.922 7.618,-1.922Z" style="fill:white;fill-rule:nonzero;"/>
            <path d="M38.105,-10.7C39.581,-10.7 40.842,-10.178 41.887,-9.132C42.933,-8.087 43.455,-6.826 43.455,-5.35C43.455,-3.874 42.933,-2.614 41.887,-1.568C40.842,-0.523 39.581,0 38.105,0C36.619,0 35.353,-0.523 34.308,-1.568C33.262,-2.614 32.74,-3.874 32.74,-5.35C32.74,-6.826 33.262,-8.087 34.308,-9.132C35.353,-10.178 36.619,-10.7 38.105,-10.7ZM35.876,-21.924L37.582,-21.924L25.268,0.584L23.561,0.584L35.876,-21.924ZM23.008,-12.822C23.889,-12.822 24.64,-13.132 25.26,-13.752C25.88,-14.372 26.19,-15.118 26.19,-15.989C26.19,-16.86 25.88,-17.606 25.26,-18.226C24.64,-18.846 23.889,-19.156 23.008,-19.156C22.136,-19.156 21.391,-18.849 20.771,-18.234C20.151,-17.619 19.84,-16.871 19.84,-15.989C19.84,-15.118 20.151,-14.372 20.771,-13.752C21.391,-13.132 22.136,-12.822 23.008,-12.822ZM23.008,-21.355C24.494,-21.355 25.76,-20.83 26.805,-19.779C27.85,-18.728 28.373,-17.465 28.373,-15.989C28.373,-14.513 27.85,-13.253 26.805,-12.207C25.76,-11.162 24.494,-10.639 23.008,-10.639C21.532,-10.639 20.271,-11.162 19.226,-12.207C18.18,-13.253 17.657,-14.513 17.657,-15.989C17.657,-17.465 18.18,-18.728 19.226,-19.779C20.271,-20.83 21.532,-21.355 23.008,-21.355ZM38.105,-2.183C38.976,-2.183 39.722,-2.493 40.342,-3.113C40.962,-3.733 41.272,-4.479 41.272,-5.35C41.272,-6.221 40.962,-6.967 40.342,-7.587C39.722,-8.207 38.976,-8.517 38.105,-8.517C37.224,-8.517 36.473,-8.207 35.853,-7.587C35.233,-6.967 34.923,-6.221 34.923,-5.35C34.923,-4.479 35.233,-3.733 35.853,-3.113C36.473,-2.493 37.224,-2.183 38.105,-2.183Z" style="fill:white;fill-rule:nonzero;"/>
        </g>
        <g transform="matrix(1,0,0,1,98.4331,547.302)">
            <path d="M-43.655,0C-43.553,-1.896 -43.161,-3.546 -42.479,-4.951C-41.798,-6.355 -40.468,-7.631 -38.489,-8.779L-35.538,-10.485C-34.215,-11.254 -33.288,-11.91 -32.755,-12.453C-31.914,-13.304 -31.494,-14.278 -31.494,-15.374C-31.494,-16.655 -31.879,-17.673 -32.647,-18.426C-33.416,-19.179 -34.441,-19.556 -35.722,-19.556C-37.618,-19.556 -38.93,-18.839 -39.658,-17.404C-40.047,-16.635 -40.263,-15.569 -40.304,-14.206L-43.117,-14.206C-43.086,-16.122 -42.733,-17.686 -42.056,-18.895C-40.857,-21.027 -38.741,-22.093 -35.707,-22.093C-33.185,-22.093 -31.343,-21.411 -30.18,-20.048C-29.016,-18.685 -28.435,-17.168 -28.435,-15.497C-28.435,-13.734 -29.055,-12.228 -30.295,-10.977C-31.012,-10.25 -32.299,-9.368 -34.154,-8.333L-36.26,-7.164C-37.265,-6.611 -38.054,-6.083 -38.628,-5.581C-39.653,-4.689 -40.299,-3.7 -40.565,-2.614L-28.542,-2.614L-28.542,0L-43.655,0Z" style="fill:white;fill-rule:nonzero;"/>
            <path d="M-18.949,0.6C-21.552,0.6 -23.441,-0.115 -24.614,-1.545C-25.788,-2.975 -26.375,-4.715 -26.375,-6.765L-23.484,-6.765C-23.361,-5.34 -23.095,-4.305 -22.685,-3.659C-21.967,-2.501 -20.671,-1.922 -18.795,-1.922C-17.34,-1.922 -16.171,-2.311 -15.29,-3.09C-14.408,-3.869 -13.968,-4.874 -13.968,-6.104C-13.968,-7.621 -14.431,-8.681 -15.359,-9.286C-16.286,-9.891 -17.575,-10.193 -19.226,-10.193C-19.41,-10.193 -19.597,-10.191 -19.787,-10.185C-19.976,-10.18 -20.168,-10.173 -20.363,-10.162L-20.363,-12.607C-20.076,-12.576 -19.835,-12.556 -19.641,-12.545C-19.446,-12.535 -19.236,-12.53 -19.01,-12.53C-17.975,-12.53 -17.124,-12.694 -16.458,-13.022C-15.29,-13.596 -14.705,-14.621 -14.705,-16.097C-14.705,-17.194 -15.095,-18.039 -15.874,-18.634C-16.653,-19.228 -17.56,-19.525 -18.595,-19.525C-20.44,-19.525 -21.716,-18.91 -22.423,-17.68C-22.813,-17.004 -23.033,-16.04 -23.084,-14.79L-25.821,-14.79C-25.821,-16.43 -25.493,-17.824 -24.837,-18.972C-23.71,-21.022 -21.726,-22.047 -18.887,-22.047C-16.643,-22.047 -14.905,-21.547 -13.675,-20.548C-12.445,-19.548 -11.83,-18.101 -11.83,-16.204C-11.83,-14.852 -12.194,-13.755 -12.922,-12.914C-13.373,-12.392 -13.957,-11.982 -14.675,-11.684C-13.517,-11.367 -12.612,-10.754 -11.961,-9.847C-11.31,-8.94 -10.985,-7.831 -10.985,-6.519C-10.985,-4.418 -11.677,-2.706 -13.06,-1.384C-14.444,-0.061 -16.407,0.6 -18.949,0.6Z" style="fill:white;fill-rule:nonzero;"/>
            <rect x="-6.926" y="-3.352" width="3.213" height="3.352" style="fill:white;fill-rule:nonzero;"/>
            <path d="M7.695,-12.791C8.915,-12.791 9.868,-13.132 10.554,-13.814C11.241,-14.495 11.585,-15.308 11.585,-16.251C11.585,-17.071 11.257,-17.824 10.601,-18.511C9.945,-19.197 8.945,-19.541 7.603,-19.541C6.27,-19.541 5.307,-19.197 4.712,-18.511C4.118,-17.824 3.821,-17.019 3.821,-16.097C3.821,-15.062 4.205,-14.252 4.974,-13.668C5.742,-13.084 6.649,-12.791 7.695,-12.791ZM7.864,-1.891C9.145,-1.891 10.209,-2.237 11.054,-2.929C11.9,-3.621 12.322,-4.653 12.322,-6.027C12.322,-7.451 11.887,-8.533 11.016,-9.271C10.144,-10.009 9.027,-10.378 7.664,-10.378C6.342,-10.378 5.263,-10.001 4.428,-9.248C3.592,-8.494 3.175,-7.451 3.175,-6.119C3.175,-4.971 3.557,-3.979 4.32,-3.144C5.084,-2.309 6.265,-1.891 7.864,-1.891ZM3.928,-11.731C3.159,-12.059 2.56,-12.443 2.129,-12.884C1.32,-13.704 0.915,-14.77 0.915,-16.081C0.915,-17.721 1.509,-19.131 2.698,-20.309C3.887,-21.488 5.573,-22.077 7.756,-22.077C9.868,-22.077 11.523,-21.521 12.722,-20.409C13.921,-19.297 14.521,-17.998 14.521,-16.512C14.521,-15.139 14.173,-14.026 13.476,-13.176C13.086,-12.694 12.481,-12.223 11.661,-11.761C12.574,-11.341 13.291,-10.859 13.814,-10.316C14.787,-9.291 15.274,-7.959 15.274,-6.319C15.274,-4.382 14.623,-2.739 13.322,-1.391C12.02,-0.044 10.18,0.63 7.802,0.63C5.66,0.63 3.849,0.049 2.368,-1.115C0.887,-2.278 0.146,-3.967 0.146,-6.18C0.146,-7.482 0.464,-8.607 1.099,-9.555C1.735,-10.503 2.678,-11.228 3.928,-11.731Z" style="fill:white;fill-rule:nonzero;"/>
            <path d="M38.105,-10.7C39.581,-10.7 40.842,-10.178 41.887,-9.132C42.933,-8.087 43.455,-6.826 43.455,-5.35C43.455,-3.874 42.933,-2.614 41.887,-1.568C40.842,-0.523 39.581,0 38.105,0C36.619,0 35.353,-0.523 34.308,-1.568C33.262,-2.614 32.74,-3.874 32.74,-5.35C32.74,-6.826 33.262,-8.087 34.308,-9.132C35.353,-10.178 36.619,-10.7 38.105,-10.7ZM35.876,-21.924L37.582,-21.924L25.268,0.584L23.561,0.584L35.876,-21.924ZM23.008,-12.822C23.889,-12.822 24.64,-13.132 25.26,-13.752C25.88,-14.372 26.19,-15.118 26.19,-15.989C26.19,-16.86 25.88,-17.606 25.26,-18.226C24.64,-18.846 23.889,-19.156 23.008,-19.156C22.136,-19.156 21.391,-18.849 20.771,-18.234C20.151,-17.619 19.84,-16.871 19.84,-15.989C19.84,-15.118 20.151,-14.372 20.771,-13.752C21.391,-13.132 22.136,-12.822 23.008,-12.822ZM23.008,-21.355C24.494,-21.355 25.76,-20.83 26.805,-19.779C27.85,-18.728 28.373,-17.465 28.373,-15.989C28.373,-14.513 27.85,-13.253 26.805,-12.207C25.76,-11.162 24.494,-10.639 23.008,-10.639C21.532,-10.639 20.271,-11.162 19.226,-12.207C18.18,-13.253 17.657,-14.513 17.657,-15.989C17.657,-17.465 18.18,-18.728 19.226,-19.779C20.271,-20.83 21.532,-21.355 23.008,-21.355ZM38.105,-2.183C38.976,-2.183 39.722,-2.493 40.342,-3.113C40.962,-3.733 41.272,-4.479 41.272,-5.35C41.272,-6.221 40.962,-6.967 40.342,-7.587C39.722,-8.207 38.976,-8.517 38.105,-8.517C37.224,-8.517 36.473,-8.207 35.853,-7.587C35.233,-6.967 34.923,-6.221 34.923,-5.35C34.923,-4.479 35.233,-3.733 35.853,-3.113C36.473,-2.493 37.224,-2.183 38.105,-2.183Z" style="fill:white;fill-rule:nonzero;"/>
        </g>
        <g transform="matrix(1,0,0,1,161.198,207.498)">
            <path d="M-31.702,-5.319C-31.62,-3.792 -31.03,-2.737 -29.934,-2.152C-29.37,-1.845 -28.735,-1.691 -28.027,-1.691C-26.705,-1.691 -25.578,-2.242 -24.645,-3.344C-23.712,-4.446 -23.051,-6.683 -22.662,-10.055C-23.277,-9.081 -24.038,-8.397 -24.945,-8.002C-25.852,-7.608 -26.828,-7.41 -27.874,-7.41C-29.995,-7.41 -31.674,-8.071 -32.909,-9.394C-34.144,-10.716 -34.761,-12.417 -34.761,-14.498C-34.761,-16.497 -34.151,-18.254 -32.932,-19.771C-31.712,-21.288 -29.913,-22.047 -27.535,-22.047C-24.327,-22.047 -22.113,-20.602 -20.894,-17.711C-20.217,-16.122 -19.879,-14.134 -19.879,-11.746C-19.879,-9.05 -20.284,-6.662 -21.093,-4.582C-22.436,-1.117 -24.712,0.615 -27.92,0.615C-30.072,0.615 -31.707,0.051 -32.824,-1.076C-33.941,-2.204 -34.5,-3.618 -34.5,-5.319L-31.702,-5.319ZM-27.505,-9.84C-26.408,-9.84 -25.406,-10.201 -24.499,-10.923C-23.592,-11.646 -23.138,-12.909 -23.138,-14.713C-23.138,-16.333 -23.546,-17.539 -24.361,-18.334C-25.175,-19.128 -26.213,-19.525 -27.474,-19.525C-28.827,-19.525 -29.9,-19.072 -30.695,-18.165C-31.489,-17.258 -31.886,-16.046 -31.886,-14.529C-31.886,-13.094 -31.538,-11.953 -30.841,-11.108C-30.144,-10.262 -29.032,-9.84 -27.505,-9.84Z" style="fill:white;fill-rule:nonzero;"/>
            <rect x="-15.682" y="-3.352" width="3.213" height="3.352" style="fill:white;fill-rule:nonzero;"/>
            <path d="M-5.442,-5.319C-5.36,-3.792 -4.771,-2.737 -3.674,-2.152C-3.111,-1.845 -2.475,-1.691 -1.768,-1.691C-0.446,-1.691 0.682,-2.242 1.614,-3.344C2.547,-4.446 3.208,-6.683 3.598,-10.055C2.983,-9.081 2.222,-8.397 1.314,-8.002C0.407,-7.608 -0.569,-7.41 -1.614,-7.41C-3.736,-7.41 -5.414,-8.071 -6.649,-9.394C-7.884,-10.716 -8.502,-12.417 -8.502,-14.498C-8.502,-16.497 -7.892,-18.254 -6.672,-19.771C-5.453,-21.288 -3.654,-22.047 -1.276,-22.047C1.932,-22.047 4.146,-20.602 5.366,-17.711C6.042,-16.122 6.38,-14.134 6.38,-11.746C6.38,-9.05 5.975,-6.662 5.166,-4.582C3.823,-1.117 1.548,0.615 -1.66,0.615C-3.813,0.615 -5.448,0.051 -6.565,-1.076C-7.682,-2.204 -8.241,-3.618 -8.241,-5.319L-5.442,-5.319ZM-1.245,-9.84C-0.149,-9.84 0.853,-10.201 1.76,-10.923C2.667,-11.646 3.121,-12.909 3.121,-14.713C3.121,-16.333 2.714,-17.539 1.899,-18.334C1.084,-19.128 0.046,-19.525 -1.215,-19.525C-2.568,-19.525 -3.641,-19.072 -4.435,-18.165C-5.23,-17.258 -5.627,-16.046 -5.627,-14.529C-5.627,-13.094 -5.278,-11.953 -4.582,-11.108C-3.885,-10.262 -2.772,-9.84 -1.245,-9.84Z" style="fill:white;fill-rule:nonzero;"/>
            <path d="M29.349,-10.7C30.825,-10.7 32.086,-10.178 33.132,-9.132C34.177,-8.087 34.7,-6.826 34.7,-5.35C34.7,-3.874 34.177,-2.614 33.132,-1.568C32.086,-0.523 30.825,0 29.349,0C27.863,0 26.597,-0.523 25.552,-1.568C24.507,-2.614 23.984,-3.874 23.984,-5.35C23.984,-6.826 24.507,-8.087 25.552,-9.132C26.597,-10.178 27.863,-10.7 29.349,-10.7ZM27.12,-21.924L28.827,-21.924L16.512,0.584L14.805,0.584L27.12,-21.924ZM14.252,-12.822C15.133,-12.822 15.884,-13.132 16.504,-13.752C17.124,-14.372 17.434,-15.118 17.434,-15.989C17.434,-16.86 17.124,-17.606 16.504,-18.226C15.884,-18.846 15.133,-19.156 14.252,-19.156C13.381,-19.156 12.635,-18.849 12.015,-18.234C11.395,-17.619 11.085,-16.871 11.085,-15.989C11.085,-15.118 11.395,-14.372 12.015,-13.752C12.635,-13.132 13.381,-12.822 14.252,-12.822ZM14.252,-21.355C15.738,-21.355 17.004,-20.83 18.049,-19.779C19.095,-18.728 19.618,-17.465 19.618,-15.989C19.618,-14.513 19.095,-13.253 18.049,-12.207C17.004,-11.162 15.738,-10.639 14.252,-10.639C12.776,-10.639 11.515,-11.162 10.47,-12.207C9.424,-13.253 8.902,-14.513 8.902,-15.989C8.902,-17.465 9.424,-18.728 10.47,-19.779C11.515,-20.83 12.776,-21.355 14.252,-21.355ZM29.349,-2.183C30.221,-2.183 30.966,-2.493 31.586,-3.113C32.207,-3.733 32.517,-4.479 32.517,-5.35C32.517,-6.221 32.207,-6.967 31.586,-7.587C30.966,-8.207 30.221,-8.517 29.349,-8.517C28.468,-8.517 27.717,-8.207 27.097,-7.587C26.477,-6.967 26.167,-6.221 26.167,-5.35C26.167,-4.479 26.477,-3.733 27.097,-3.113C27.717,-2.493 28.468,-2.183 29.349,-2.183Z" style="fill:white;fill-rule:nonzero;"/>
        </g>
        <g transform="matrix(1,0,0,1,327.481,101.801)">
            <path d="M-27.32,-12.791C-26.1,-12.791 -25.147,-13.132 -24.46,-13.814C-23.774,-14.495 -23.43,-15.308 -23.43,-16.251C-23.43,-17.071 -23.758,-17.824 -24.414,-18.511C-25.07,-19.197 -26.07,-19.541 -27.412,-19.541C-28.745,-19.541 -29.708,-19.197 -30.303,-18.511C-30.897,-17.824 -31.194,-17.019 -31.194,-16.097C-31.194,-15.062 -30.81,-14.252 -30.041,-13.668C-29.273,-13.084 -28.366,-12.791 -27.32,-12.791ZM-27.151,-1.891C-25.87,-1.891 -24.806,-2.237 -23.961,-2.929C-23.115,-3.621 -22.692,-4.653 -22.692,-6.027C-22.692,-7.451 -23.128,-8.533 -23.999,-9.271C-24.87,-10.009 -25.988,-10.378 -27.351,-10.378C-28.673,-10.378 -29.752,-10.001 -30.587,-9.248C-31.422,-8.494 -31.84,-7.451 -31.84,-6.119C-31.84,-4.971 -31.458,-3.979 -30.695,-3.144C-29.931,-2.309 -28.75,-1.891 -27.151,-1.891ZM-31.087,-11.731C-31.855,-12.059 -32.455,-12.443 -32.886,-12.884C-33.695,-13.704 -34.1,-14.77 -34.1,-16.081C-34.1,-17.721 -33.506,-19.131 -32.317,-20.309C-31.128,-21.488 -29.442,-22.077 -27.259,-22.077C-25.147,-22.077 -23.492,-21.521 -22.293,-20.409C-21.093,-19.297 -20.494,-17.998 -20.494,-16.512C-20.494,-15.139 -20.842,-14.026 -21.539,-13.176C-21.929,-12.694 -22.534,-12.223 -23.354,-11.761C-22.441,-11.341 -21.724,-10.859 -21.201,-10.316C-20.227,-9.291 -19.741,-7.959 -19.741,-6.319C-19.741,-4.382 -20.391,-2.739 -21.693,-1.391C-22.995,-0.044 -24.835,0.63 -27.212,0.63C-29.355,0.63 -31.166,0.049 -32.647,-1.115C-34.128,-2.278 -34.869,-3.967 -34.869,-6.18C-34.869,-7.482 -34.551,-8.607 -33.916,-9.555C-33.28,-10.503 -32.337,-11.228 -31.087,-11.731Z" style="fill:white;fill-rule:nonzero;"/>
            <rect x="-15.682" y="-3.352" width="3.213" height="3.352" style="fill:white;fill-rule:nonzero;"/>
            <path d="M6.842,-21.647L6.842,-19.233C6.134,-18.546 5.194,-17.352 4.02,-15.651C2.847,-13.95 1.809,-12.115 0.907,-10.147C0.015,-8.23 -0.661,-6.483 -1.122,-4.904C-1.42,-3.89 -1.804,-2.255 -2.275,0L-5.335,0C-4.638,-4.202 -3.1,-8.384 -0.723,-12.545C0.682,-14.985 2.158,-17.091 3.705,-18.864L-8.471,-18.864L-8.471,-21.647L6.842,-21.647Z" style="fill:white;fill-rule:nonzero;"/>
            <path d="M29.349,-10.7C30.825,-10.7 32.086,-10.178 33.132,-9.132C34.177,-8.087 34.7,-6.826 34.7,-5.35C34.7,-3.874 34.177,-2.614 33.132,-1.568C32.086,-0.523 30.825,0 29.349,0C27.863,0 26.597,-0.523 25.552,-1.568C24.507,-2.614 23.984,-3.874 23.984,-5.35C23.984,-6.826 24.507,-8.087 25.552,-9.132C26.597,-10.178 27.863,-10.7 29.349,-10.7ZM27.12,-21.924L28.827,-21.924L16.512,0.584L14.805,0.584L27.12,-21.924ZM14.252,-12.822C15.133,-12.822 15.884,-13.132 16.504,-13.752C17.124,-14.372 17.434,-15.118 17.434,-15.989C17.434,-16.86 17.124,-17.606 16.504,-18.226C15.884,-18.846 15.133,-19.156 14.252,-19.156C13.381,-19.156 12.635,-18.849 12.015,-18.234C11.395,-17.619 11.085,-16.871 11.085,-15.989C11.085,-15.118 11.395,-14.372 12.015,-13.752C12.635,-13.132 13.381,-12.822 14.252,-12.822ZM14.252,-21.355C15.738,-21.355 17.004,-20.83 18.049,-19.779C19.095,-18.728 19.618,-17.465 19.618,-15.989C19.618,-14.513 19.095,-13.253 18.049,-12.207C17.004,-11.162 15.738,-10.639 14.252,-10.639C12.776,-10.639 11.515,-11.162 10.47,-12.207C9.424,-13.253 8.902,-14.513 8.902,-15.989C8.902,-17.465 9.424,-18.728 10.47,-19.779C11.515,-20.83 12.776,-21.355 14.252,-21.355ZM29.349,-2.183C30.221,-2.183 30.966,-2.493 31.586,-3.113C32.207,-3.733 32.517,-4.479 32.517,-5.35C32.517,-6.221 32.207,-6.967 31.586,-7.587C30.966,-8.207 30.221,-8.517 29.349,-8.517C28.468,-8.517 27.717,-8.207 27.097,-7.587C26.477,-6.967 26.167,-6.221 26.167,-5.35C26.167,-4.479 26.477,-3.733 27.097,-3.113C27.717,-2.493 28.468,-2.183 29.349,-2.183Z" style="fill:white;fill-rule:nonzero;"/>
        </g>
    </g>
</svg>
