<?xml version="1.0" encoding="UTF-8" standalone="no"?>
<!DOCTYPE svg PUBLIC "-//W3C//DTD SVG 1.1//EN" "http://www.w3.org/Graphics/SVG/1.1/DTD/svg11.dtd">
<svg width="100%" height="100%" viewBox="0 0 350 418" version="1.1" xmlns="http://www.w3.org/2000/svg" xmlns:xlink="http://www.w3.org/1999/xlink" xml:space="preserve" xmlns:serif="http://www.serif.com/" style="fill-rule:evenodd;clip-rule:evenodd;stroke-linejoin:round;stroke-miterlimit:1.41421;">
    <g>
        <g id="Elipse.svg" transform="matrix(1.19209,0,0,1.19209,-93.4155,-57.2833)">
            <path d="M301,290C330.624,290 355,314.376 355,344C355,373.624 330.624,398 301,398C271.376,398 247,373.624 247,344C247,314.376 271.376,290 301,290ZM286.941,341.809L294.669,356.904C294.669,356.904 307.229,326.226 327.034,316.004C326.551,323.304 324.619,329.639 328,337.43C319.305,339.378 301.432,361.291 295.636,372.004C287.424,361.778 277.763,353.987 271,351.552L286.941,341.809Z" style="fill:white;"/>
        </g>
        <path d="M194.324,375.42L36.405,375.42C34.257,375.42 31.149,374.757 29.168,373.867C28.742,373.684 28.361,373.417 28.025,373.088L23.044,368.108C22.709,367.78 22.451,367.392 22.253,366.966C21.368,364.992 20.714,361.877 20.714,359.712L20.714,16.736C20.714,14.579 21.368,11.464 22.268,9.5C22.451,9.073 22.709,8.692 23.044,8.364L28.025,3.36C28.361,3.017 28.757,2.751 29.198,2.56C31.179,1.684 34.288,1.029 36.405,1.029L167.402,1.029C170.022,1.029 173.297,2.384 175.171,4.243L287.095,116.161C288.969,118.041 290.317,121.316 290.317,123.953L290.317,282.495C282.512,279.695 274.122,278.167 265.404,278.167C259.282,278.167 253.321,278.92 247.612,280.339L244.07,276.496C243.58,276.006 243.018,275.761 242.384,275.761C242.039,275.761 241.707,275.841 241.391,275.999C241.074,276.157 240.771,276.366 240.483,276.626C239.532,277.49 238.574,278.217 237.609,278.808C236.644,279.398 235.622,279.881 234.541,280.256C233.461,280.63 232.28,280.904 230.998,281.077C229.716,281.249 228.282,281.336 226.698,281.336C224.048,281.336 221.57,280.839 219.265,279.845C216.961,278.851 214.958,277.418 213.259,275.545C211.559,273.673 210.212,271.368 209.218,268.631C208.224,265.894 207.727,262.768 207.727,259.254C207.727,255.768 208.188,252.664 209.11,249.941C210.032,247.219 211.328,244.914 212.999,243.027C214.67,241.14 216.665,239.7 218.984,238.706C221.304,237.712 223.86,237.215 226.655,237.215C228.297,237.215 229.745,237.337 230.998,237.582C232.251,237.827 233.353,238.13 234.304,238.49C235.254,238.85 236.09,239.246 236.81,239.678C237.53,240.11 238.164,240.506 238.711,240.866C239.259,241.227 239.763,241.529 240.224,241.774C240.685,242.019 241.131,242.141 241.563,242.141C242.197,242.141 242.694,242.012 243.054,241.752C243.414,241.493 243.71,241.191 243.94,240.845L247.829,235.443C245.352,233.023 242.348,231.064 238.819,229.566C235.29,228.068 231.25,227.319 226.698,227.319C222.117,227.319 217.94,228.104 214.166,229.674C210.392,231.244 207.144,233.441 204.421,236.264C201.699,239.088 199.589,242.451 198.091,246.355C196.593,250.258 195.844,254.558 195.844,259.254C195.844,263.892 196.542,268.17 197.939,272.088C199.337,276.006 201.346,279.377 203.968,282.2C206.589,285.023 209.751,287.227 213.453,288.812C216.516,290.123 219.9,290.892 223.605,291.118C214.444,297.37 206.719,305.602 201.069,315.177L35.611,315.177L35.613,359.6L36.526,360.529L191.178,360.524C191.716,365.656 192.784,370.639 194.324,375.42ZM190.788,259.254C190.788,263.834 190.031,268.077 188.519,271.98C187.006,275.884 184.867,279.262 182.102,282.114C179.336,284.966 176.009,287.191 172.119,288.79C168.23,290.389 163.909,291.189 159.155,291.189C154.431,291.189 150.124,290.389 146.235,288.79C142.345,287.191 139.011,284.966 136.231,282.114C133.451,279.262 131.297,275.884 129.77,271.98C128.243,268.077 127.48,263.834 127.48,259.254C127.48,254.673 128.243,250.431 129.77,246.527C131.297,242.624 133.451,239.246 136.231,236.394C139.011,233.542 142.345,231.316 146.235,229.717C150.124,228.119 154.431,227.319 159.155,227.319C162.324,227.319 165.306,227.686 168.101,228.421C170.895,229.156 173.459,230.193 175.793,231.532C178.126,232.872 180.222,234.5 182.08,236.415C183.938,238.331 185.516,240.47 186.812,242.833C188.108,245.195 189.095,247.759 189.772,250.525C190.449,253.29 190.788,256.2 190.788,259.254ZM90.835,290.497C95.589,290.497 99.91,289.734 103.799,288.207C107.688,286.68 111.016,284.534 113.781,281.768C116.547,279.002 118.693,275.704 120.22,271.872C121.747,268.041 122.51,263.834 122.51,259.254C122.51,254.673 121.747,250.467 120.22,246.635C118.693,242.804 116.547,239.512 113.781,236.761C111.016,234.01 107.688,231.864 103.799,230.322C99.91,228.781 95.588,228.01 90.835,228.01L67.024,228.01L67.024,290.497L90.835,290.497ZM90.835,237.258C93.889,237.258 96.633,237.762 99.067,238.771C101.501,239.779 103.576,241.227 105.29,243.114C107.004,245.001 108.315,247.305 109.222,250.028C110.13,252.75 110.584,255.826 110.584,259.254C110.584,262.682 110.13,265.757 109.222,268.48C108.315,271.202 107.004,273.507 105.29,275.394C103.576,277.281 101.501,278.729 99.067,279.737C96.633,280.745 93.889,281.249 90.835,281.249L78.692,281.249L78.692,237.258L90.835,237.258ZM178.904,259.254C178.904,255.826 178.443,252.75 177.521,250.028C176.599,247.305 175.288,244.993 173.589,243.092C171.889,241.191 169.822,239.736 167.388,238.727C164.953,237.719 162.209,237.215 159.155,237.215C156.102,237.215 153.358,237.719 150.923,238.727C148.489,239.736 146.415,241.191 144.701,243.092C142.986,244.993 141.668,247.305 140.746,250.028C139.825,252.75 139.364,255.826 139.364,259.254C139.364,262.682 139.825,265.757 140.746,268.48C141.668,271.202 142.986,273.507 144.701,275.394C146.415,277.281 148.489,278.729 150.923,279.737C153.358,280.745 156.102,281.249 159.155,281.249C162.209,281.249 164.953,280.745 167.388,279.737C169.822,278.729 171.889,277.281 173.589,275.394C175.288,273.507 176.599,271.202 177.521,268.48C178.443,265.757 178.904,262.682 178.904,259.254ZM160.501,15.929L36.526,15.929L35.596,16.865L35.605,202.774L275.413,202.774L275.411,130.777L164.31,130.777C163.289,130.777 162.329,130.373 161.612,129.657C160.897,128.941 160.485,127.974 160.485,126.96L160.501,15.929Z" style="fill:white;"/>
    </g>
</svg>
