<?xml version="1.0" encoding="UTF-8" standalone="no"?>
<!DOCTYPE svg PUBLIC "-//W3C//DTD SVG 1.1//EN" "http://www.w3.org/Graphics/SVG/1.1/DTD/svg11.dtd">
<svg width="100%" height="100%" viewBox="0 0 350 418" version="1.1" xmlns="http://www.w3.org/2000/svg" xmlns:xlink="http://www.w3.org/1999/xlink" xml:space="preserve" xmlns:serif="http://www.serif.com/" style="fill-rule:evenodd;clip-rule:evenodd;stroke-linejoin:round;stroke-miterlimit:1.41421;">
    <g transform="matrix(0.968927,0,0,0.968927,-72.1419,23.917)">
        <g transform="matrix(1.23032,0,0,1.23032,-21.9558,-83.8044)">
            <path d="M241.512,363.861L108.542,363.861C106.722,363.861 104.108,363.304 102.441,362.56C102.083,362.407 101.761,362.176 101.48,361.9L97.289,357.702C97.019,357.427 96.788,357.106 96.635,356.748C95.878,355.088 95.328,352.466 95.328,350.653L95.328,62.06C95.328,60.253 95.878,57.632 96.635,55.971C96.788,55.613 97.006,55.292 97.289,55.016L101.48,50.813C101.761,50.531 102.095,50.306 102.453,50.146C104.12,49.403 106.735,48.852 108.542,48.852L218.749,48.852C220.966,48.852 223.723,49.992 225.286,51.556L319.459,145.722C321.023,147.292 322.164,150.041 322.164,152.265L322.164,284.968C315.539,282.564 308.411,281.251 301,281.251C277.748,281.251 257.278,294.175 246.441,313.173L107.861,313.173L107.863,350.549L108.645,351.332L238.684,351.332C239.196,355.653 240.155,359.845 241.512,363.861ZM258.472,271.656L258.472,281.91C256.805,282.718 254.563,283.116 251.73,283.116C247.026,283.116 243.283,281.641 240.502,278.694C237.732,275.726 236.349,271.56 236.349,266.164C236.349,260.838 237.886,256.583 240.975,253.398C244.064,250.212 248.064,248.616 252.973,248.616C258.831,248.616 263.791,249.789 267.842,252.135L267.842,241.047C263.599,239.503 258.69,238.728 253.127,238.728C244.282,238.728 237.207,241.336 231.888,246.533C226.568,251.737 223.903,258.454 223.903,266.709C223.903,274.906 226.338,281.347 231.208,286.032C236.079,290.697 242.732,293.043 251.179,293.043C258.793,293.043 265.163,291.562 270.29,288.608L270.29,262.21L247.962,262.21L247.962,271.656L258.472,271.656ZM173.887,239.612L162.108,239.612L162.108,270.81C162.108,278.822 159.404,282.82 154.007,282.82C151.495,282.82 149.226,282.058 147.201,280.52L147.201,291.608C149.547,292.569 152.084,293.043 154.853,293.043C161.031,293.043 165.748,291.172 169.004,287.436C172.273,283.698 173.887,278.315 173.887,271.285L173.887,239.612ZM201.972,239.612L183.437,239.612L183.437,292.12L195.267,292.12L195.267,274.028L200.908,274.028C207.253,274.028 212.328,272.407 216.122,269.144C219.929,265.889 221.826,261.626 221.826,256.352C221.826,245.195 215.199,239.612 201.972,239.612ZM199.919,265.061L195.267,265.061L195.267,248.693L199.919,248.693C206.227,248.693 209.367,251.392 209.367,256.787C209.367,262.305 206.227,265.061 199.919,265.061ZM212.944,61.387L108.645,61.387L107.85,62.17L107.857,218.591L309.632,218.591L309.628,158.026L216.147,158.026C215.302,158.026 214.481,157.687 213.879,157.085C213.276,156.482 212.93,155.668 212.93,154.81L212.944,61.387Z" style="fill:white;"/>
        </g>
        <g id="Elipse.svg" transform="matrix(1.23032,0,0,1.23032,-21.9558,-83.8044)">
            <path d="M301,290C330.624,290 355,314.376 355,344C355,373.624 330.624,398 301,398C271.376,398 247,373.624 247,344C247,314.376 271.376,290 301,290ZM286.941,341.809L294.669,356.904C294.669,356.904 307.229,326.226 327.034,316.004C326.551,323.304 324.619,329.639 328,337.43C319.305,339.378 301.432,361.291 295.636,372.004C287.424,361.778 277.763,353.987 271,351.552L286.941,341.809Z" style="fill:white;"/>
        </g>
    </g>
</svg>
