<?xml version="1.0" encoding="UTF-8" standalone="no"?>
<!DOCTYPE svg PUBLIC "-//W3C//DTD SVG 1.1//EN" "http://www.w3.org/Graphics/SVG/1.1/DTD/svg11.dtd">
<svg width="100%" height="100%" viewBox="0 0 350 418" version="1.1" xmlns="http://www.w3.org/2000/svg" xmlns:xlink="http://www.w3.org/1999/xlink" xml:space="preserve" xmlns:serif="http://www.serif.com/" style="fill-rule:evenodd;clip-rule:evenodd;stroke-linejoin:round;stroke-miterlimit:1.41421;">
    <g>
        <g id="Elipse.svg" transform="matrix(1.19209,0,0,1.19209,-93.4155,-57.2833)">
            <path d="M301,290C330.624,290 355,314.376 355,344C355,373.624 330.624,398 301,398C271.376,398 247,373.624 247,344C247,314.376 271.376,290 301,290ZM286.941,341.809L294.669,356.904C294.669,356.904 307.229,326.226 327.034,316.004C326.551,323.304 324.619,329.639 328,337.43C319.305,339.378 301.432,361.291 295.636,372.004C287.424,361.778 277.763,353.987 271,351.552L286.941,341.809Z" style="fill:white;"/>
        </g>
        <path d="M194.324,375.42L36.405,375.42C34.257,375.42 31.149,374.757 29.168,373.867C28.742,373.684 28.361,373.417 28.025,373.088L23.044,368.108C22.709,367.78 22.451,367.392 22.253,366.966C21.368,364.992 20.714,361.877 20.714,359.712L20.714,16.736C20.714,14.579 21.368,11.464 22.268,9.5C22.451,9.073 22.709,8.692 23.044,8.364L28.025,3.36C28.361,3.017 28.757,2.751 29.198,2.56C31.179,1.684 34.288,1.029 36.405,1.029L167.402,1.029C170.022,1.029 173.297,2.384 175.171,4.243L287.095,116.161C288.969,118.041 290.317,121.316 290.317,123.953L290.317,282.495C282.512,279.695 274.122,278.167 265.404,278.167C238.141,278.167 214.094,293.106 201.069,315.177L35.611,315.177L35.613,359.6L36.526,360.529L191.178,360.524C191.716,365.656 192.784,370.64 194.324,375.42ZM231.469,227.765L195.386,227.765L195.386,290.185L209.447,290.185L209.447,265.933L229.685,265.933L229.685,254.531L209.447,254.531L209.447,239.212L231.469,239.212L231.469,227.765ZM154.088,227.765L131.983,227.765L131.983,290.185L154.088,290.185C164.158,290.185 172.216,287.275 178.265,281.48C184.312,275.675 187.344,267.914 187.344,258.187C187.344,237.91 176.253,227.765 154.088,227.765ZM101.576,227.765L79.547,227.765L79.547,290.185L93.608,290.185L93.608,268.676L100.312,268.676C107.852,268.676 113.885,266.74 118.394,262.871C122.903,259.001 125.158,253.921 125.158,247.652C125.158,234.391 117.297,227.765 101.576,227.765ZM153.006,278.776L146.044,278.776L146.044,239.212L152.914,239.212C159.129,239.212 163.943,240.918 167.386,244.315C170.83,247.736 172.536,252.421 172.536,258.354C172.536,264.653 170.814,269.643 167.355,273.298C163.882,276.947 159.1,278.775 153.006,278.776ZM99.123,258.011L93.608,258.011L93.608,238.557L99.123,238.557C106.618,238.557 110.366,241.757 110.366,248.178C110.366,254.736 106.619,258.011 99.123,258.011ZM160.501,15.929L36.526,15.929L35.596,16.865L35.605,202.774L275.413,202.774L275.411,130.777L164.31,130.777C163.289,130.777 162.329,130.373 161.612,129.657C160.897,128.941 160.485,127.974 160.485,126.96L160.501,15.929Z" style="fill:white;"/>
    </g>
</svg>
