<?xml version="1.0" encoding="UTF-8" standalone="no"?>
<!DOCTYPE svg PUBLIC "-//W3C//DTD SVG 1.1//EN" "http://www.w3.org/Graphics/SVG/1.1/DTD/svg11.dtd">
<svg width="100%" height="100%" viewBox="0 0 350 418" version="1.1" xmlns="http://www.w3.org/2000/svg" xmlns:xlink="http://www.w3.org/1999/xlink" xml:space="preserve" xmlns:serif="http://www.serif.com/" style="fill-rule:evenodd;clip-rule:evenodd;stroke-linejoin:round;stroke-miterlimit:1.41421;">
    <g>
        <g id="Elipse.svg" transform="matrix(1.19209,0,0,1.19209,-93.4155,-57.2833)">
            <path d="M301,290C330.624,290 355,314.376 355,344C355,373.624 330.624,398 301,398C271.376,398 247,373.624 247,344C247,314.376 271.376,290 301,290ZM286.941,341.809L294.669,356.904C294.669,356.904 307.229,326.226 327.034,316.004C326.551,323.304 324.619,329.639 328,337.43C319.305,339.378 301.432,361.291 295.636,372.004C287.424,361.778 277.763,353.987 271,351.552L286.941,341.809Z" style="fill:white;"/>
        </g>
        <path d="M194.36,375.532L36.171,375.532C34.006,375.532 30.881,374.869 28.914,373.985C28.488,373.802 28.091,373.528 27.771,373.2L22.787,368.208C22.467,367.88 22.193,367.499 22.01,367.08C21.125,365.114 20.455,361.997 20.455,359.825L20.455,16.633C20.455,14.468 21.125,11.343 22.01,9.385C22.193,8.965 22.467,8.577 22.787,8.256L27.771,3.257C28.091,2.921 28.488,2.654 28.93,2.457C30.912,1.581 34.021,0.925 36.171,0.925L167.228,0.925C169.865,0.925 173.128,2.274 175.002,4.133L286.993,116.13C288.845,117.996 290.207,121.267 290.207,123.903L290.207,282.456C282.432,279.68 274.081,278.167 265.404,278.167C256.971,278.167 248.847,279.596 241.261,282.223L241.261,254.641L214.692,254.641L214.692,265.883L227.188,265.883L227.188,278.069C225.217,279.03 222.541,279.502 219.172,279.502C213.569,279.502 209.131,277.756 205.823,274.251C202.531,270.715 200.884,265.768 200.884,259.352C200.884,253.017 202.713,247.958 206.402,244.17C210.076,240.382 214.836,238.483 220.654,238.483C227.618,238.483 233.52,239.879 238.334,242.675L238.334,229.483C233.293,227.646 227.451,226.724 220.833,226.724C210.32,226.724 201.906,229.826 195.564,236.007C189.254,242.195 186.084,250.183 186.084,259.999C186.084,269.747 188.979,277.406 194.771,282.97C200.564,288.526 208.491,291.316 218.515,291.316C220.267,291.316 221.962,291.251 223.602,291.12C214.417,297.389 206.677,305.648 201.024,315.254L35.347,315.254L35.347,359.702L36.292,360.632L191.19,360.632C191.736,365.766 192.811,370.752 194.36,375.532ZM137.017,227.776L121.85,227.776L121.85,290.225L135.142,290.225L135.142,255.906C135.142,251.371 135.02,248.002 134.791,245.801L134.959,245.801C135.539,246.967 136.59,248.688 138.099,250.997L163.844,290.225L178.035,290.225L178.035,227.776L164.759,227.776L164.759,262.301C164.759,266.583 164.865,269.433 165.11,270.891L164.926,270.891C163.967,269.198 162.93,267.498 161.787,265.791L137.017,227.776ZM91.426,227.776L69.4,227.776L69.4,290.225L83.454,290.225L83.454,268.711L90.16,268.711C97.705,268.711 103.742,266.775 108.268,262.888C112.765,259.016 115.036,253.948 115.036,247.676C115.036,234.407 107.172,227.776 91.426,227.776ZM88.986,258.033L83.454,258.033L83.454,238.575L88.986,238.575C96.471,238.575 100.237,241.777 100.237,248.201C100.237,254.763 96.471,258.032 88.986,258.033ZM160.323,15.832L36.292,15.832L35.347,16.769L35.347,202.777L275.297,202.777L275.297,130.755L164.134,130.755C163.127,130.755 162.152,130.351 161.435,129.635C160.72,128.919 160.308,127.95 160.308,126.93L160.323,15.832Z" style="fill:white;"/>
    </g>
</svg>
