<?xml version="1.0" encoding="UTF-8" standalone="no"?>
<!DOCTYPE svg PUBLIC "-//W3C//DTD SVG 1.1//EN" "http://www.w3.org/Graphics/SVG/1.1/DTD/svg11.dtd">
<svg width="100%" height="100%" viewBox="0 0 350 418" version="1.1" xmlns="http://www.w3.org/2000/svg" xmlns:xlink="http://www.w3.org/1999/xlink" xml:space="preserve" xmlns:serif="http://www.serif.com/" style="fill-rule:evenodd;clip-rule:evenodd;stroke-linejoin:round;stroke-miterlimit:1.41421;">
    <g>
        <g id="Elipse.svg" transform="matrix(1.19209,0,0,1.19209,-93.4155,-57.2833)">
            <path d="M301,290C330.624,290 355,314.376 355,344C355,373.624 330.624,398 301,398C271.376,398 247,373.624 247,344C247,314.376 271.376,290 301,290ZM286.941,341.809L294.669,356.904C294.669,356.904 307.229,326.226 327.034,316.004C326.551,323.304 324.619,329.639 328,337.43C319.305,339.378 301.432,361.291 295.636,372.004C287.424,361.778 277.763,353.987 271,351.552L286.941,341.809Z" style="fill:white;"/>
        </g>
        <path d="M194.324,375.42L36.405,375.42C34.257,375.42 31.149,374.757 29.168,373.867C28.742,373.684 28.361,373.417 28.025,373.088L23.044,368.108C22.709,367.78 22.451,367.392 22.253,366.966C21.368,364.992 20.714,361.877 20.714,359.712L20.714,16.736C20.714,14.579 21.368,11.464 22.268,9.5C22.451,9.073 22.709,8.692 23.044,8.364L28.025,3.36C28.361,3.017 28.757,2.751 29.198,2.56C31.179,1.684 34.288,1.029 36.405,1.029L167.402,1.029C170.022,1.029 173.297,2.384 175.171,4.243L287.095,116.161C288.969,118.041 290.317,121.316 290.317,123.953L290.317,282.495C282.512,279.695 274.122,278.167 265.404,278.167C238.141,278.167 214.094,293.106 201.069,315.177L35.611,315.177L35.613,359.6L36.526,360.529L191.178,360.524C191.716,365.656 192.784,370.64 194.324,375.42ZM104.274,268.501C108.337,268.501 111.887,267.997 114.926,266.989C117.966,265.981 120.494,264.569 122.51,262.754C124.527,260.939 126.04,258.771 127.048,256.25C128.056,253.73 128.56,250.957 128.56,247.932C128.56,245.022 128.078,242.343 127.113,239.894C126.148,237.445 124.671,235.342 122.683,233.585C120.695,231.828 118.175,230.459 115.121,229.48C112.067,228.5 108.452,228.01 104.274,228.01L83.964,228.01L83.964,290.497L95.588,290.497L95.588,268.501L104.274,268.501ZM156.217,268.501C160.279,268.501 163.83,267.997 166.869,266.989C169.908,265.981 172.436,264.569 174.453,262.754C176.47,260.939 177.982,258.771 178.99,256.25C179.999,253.73 180.503,250.957 180.503,247.932C180.503,245.022 180.02,242.343 179.055,239.894C178.09,237.445 176.614,235.342 174.626,233.585C172.638,231.828 170.117,230.459 167.063,229.48C164.01,228.5 160.394,228.01 156.217,228.01L135.907,228.01L135.907,290.497L147.531,290.497L147.531,268.501L156.217,268.501ZM231.495,237.561L231.495,228.01L182.188,228.01L182.188,237.561L201.029,237.561L201.029,290.497L212.654,290.497L212.654,237.561L231.495,237.561ZM104.274,236.999C106.435,236.999 108.308,237.251 109.892,237.755C111.477,238.259 112.787,238.987 113.825,239.937C114.862,240.888 115.639,242.04 116.158,243.394C116.677,244.748 116.936,246.261 116.936,247.932C116.936,249.689 116.677,251.281 116.158,252.707C115.639,254.133 114.854,255.343 113.803,256.337C112.751,257.331 111.433,258.094 109.849,258.627C108.264,259.16 106.406,259.427 104.274,259.427L95.588,259.427L95.588,236.999L104.274,236.999ZM156.217,236.999C158.378,236.999 160.25,237.251 161.835,237.755C163.419,238.259 164.73,238.987 165.767,239.937C166.804,240.888 167.582,242.04 168.101,243.394C168.619,244.748 168.878,246.261 168.878,247.932C168.878,249.689 168.619,251.281 168.101,252.707C167.582,254.133 166.797,255.343 165.745,256.337C164.694,257.331 163.376,258.094 161.791,258.627C160.207,259.16 158.349,259.427 156.217,259.427L147.531,259.427L147.531,236.999L156.217,236.999ZM160.501,15.929L36.526,15.929L35.596,16.865L35.605,202.774L275.413,202.774L275.411,130.777L164.31,130.777C163.289,130.777 162.329,130.373 161.612,129.657C160.897,128.941 160.485,127.974 160.485,126.96L160.501,15.929Z" style="fill:white;"/>
    </g>
</svg>
