<?xml version="1.0" encoding="UTF-8" standalone="no"?>
<!DOCTYPE svg PUBLIC "-//W3C//DTD SVG 1.1//EN" "http://www.w3.org/Graphics/SVG/1.1/DTD/svg11.dtd">
<svg width="100%" height="100%" viewBox="0 0 350 418" version="1.1" xmlns="http://www.w3.org/2000/svg" xmlns:xlink="http://www.w3.org/1999/xlink" xml:space="preserve" xmlns:serif="http://www.serif.com/" style="fill-rule:evenodd;clip-rule:evenodd;stroke-linejoin:round;stroke-miterlimit:1.41421;">
    <g>
        <g id="Elipse.svg" transform="matrix(1.19209,0,0,1.19209,-93.4155,-57.2833)">
            <path d="M301,290C330.624,290 355,314.376 355,344C355,373.624 330.624,398 301,398C271.376,398 247,373.624 247,344C247,314.376 271.376,290 301,290ZM286.941,341.809L294.669,356.904C294.669,356.904 307.229,326.226 327.034,316.004C326.551,323.304 324.619,329.639 328,337.43C319.305,339.378 301.432,361.291 295.636,372.004C287.424,361.778 277.763,353.987 271,351.552L286.941,341.809Z" style="fill:white;"/>
        </g>
        <path d="M194.324,375.42L36.405,375.42C34.257,375.42 31.149,374.757 29.168,373.867C28.742,373.684 28.361,373.417 28.025,373.088L23.044,368.108C22.709,367.78 22.451,367.392 22.253,366.966C21.368,364.992 20.714,361.877 20.714,359.712L20.714,16.736C20.714,14.579 21.368,11.464 22.268,9.5C22.451,9.073 22.709,8.692 23.044,8.364L28.025,3.36C28.361,3.017 28.757,2.751 29.198,2.56C31.179,1.684 34.288,1.029 36.405,1.029L167.402,1.029C170.022,1.029 173.297,2.384 175.171,4.243L287.095,116.161C288.969,118.041 290.317,121.316 290.317,123.953L290.317,282.495C282.512,279.695 274.122,278.167 265.404,278.167C238.141,278.167 214.094,293.106 201.069,315.177L35.611,315.177L35.613,359.6L36.526,360.529L191.178,360.524C191.716,365.656 192.784,370.64 194.324,375.42ZM221.275,239.376C220.929,239.981 220.562,240.42 220.173,240.694C219.784,240.967 219.301,241.104 218.725,241.104C218.12,241.104 217.465,240.881 216.759,240.434C216.053,239.988 215.21,239.491 214.231,238.943C213.251,238.396 212.106,237.899 210.795,237.453C209.485,237.006 207.936,236.783 206.15,236.783C204.537,236.783 203.125,236.977 201.915,237.366C200.705,237.755 199.69,238.295 198.869,238.987C198.047,239.678 197.435,240.506 197.032,241.471C196.629,242.437 196.427,243.495 196.427,244.648C196.427,246.117 196.838,247.341 197.659,248.321C198.48,249.3 199.567,250.136 200.921,250.827C202.275,251.519 203.816,252.138 205.545,252.685C207.274,253.233 209.045,253.816 210.86,254.435C212.675,255.055 214.447,255.775 216.176,256.596C217.904,257.417 219.445,258.454 220.799,259.708C222.153,260.961 223.241,262.495 224.062,264.31C224.883,266.125 225.294,268.329 225.294,270.921C225.294,273.745 224.811,276.388 223.846,278.851C222.881,281.314 221.469,283.461 219.611,285.29C217.753,287.119 215.484,288.56 212.805,289.611C210.126,290.663 207.058,291.189 203.6,291.189C201.613,291.189 199.654,290.994 197.723,290.605C195.793,290.216 193.942,289.662 192.17,288.941C190.399,288.221 188.735,287.357 187.179,286.349C185.624,285.34 184.241,284.217 183.031,282.978L186.445,277.403C186.733,277 187.107,276.662 187.568,276.388C188.029,276.114 188.519,275.977 189.037,275.977C189.758,275.977 190.536,276.273 191.371,276.863C192.206,277.454 193.2,278.109 194.353,278.829C195.505,279.55 196.852,280.205 198.393,280.796C199.934,281.386 201.785,281.682 203.946,281.682C207.259,281.682 209.823,280.897 211.638,279.326C213.453,277.756 214.361,275.502 214.361,272.564C214.361,270.921 213.95,269.582 213.129,268.545C212.308,267.508 211.22,266.636 209.866,265.93C208.512,265.224 206.971,264.627 205.243,264.137C203.514,263.647 201.757,263.114 199.97,262.538C198.184,261.962 196.427,261.27 194.698,260.464C192.97,259.657 191.429,258.606 190.075,257.309C188.721,256.013 187.633,254.392 186.812,252.448C185.991,250.503 185.58,248.105 185.58,245.253C185.58,242.977 186.034,240.758 186.942,238.598C187.849,236.437 189.167,234.521 190.896,232.85C192.624,231.179 194.756,229.84 197.291,228.832C199.826,227.823 202.736,227.319 206.02,227.319C209.708,227.319 213.107,227.895 216.219,229.048C219.33,230.2 221.981,231.813 224.17,233.888L221.275,239.376ZM156.282,280.904L156.282,228.01L144.657,228.01L144.657,290.497L181.259,290.497L181.259,280.904L156.282,280.904ZM139.04,290.497L118.384,257.871L138.478,228.01L127.372,228.01C126.796,228.01 126.32,228.14 125.946,228.399C125.571,228.659 125.226,229.062 124.909,229.609L111.858,250.136C111.455,250.856 111.109,251.576 110.821,252.296L96.604,229.393C96.287,228.904 95.949,228.551 95.588,228.335C95.228,228.119 94.645,228.01 93.838,228.01L82.257,228.01L102.178,258.346L81.436,290.497L92.283,290.497C93.003,290.497 93.586,290.288 94.033,289.871C94.479,289.453 94.875,288.999 95.221,288.509L109.093,266.384C109.41,265.865 109.683,265.246 109.914,264.526L124.39,288.509C124.678,289.028 125.06,289.489 125.535,289.892C126.011,290.295 126.652,290.497 127.458,290.497L139.04,290.497ZM160.501,15.929L36.526,15.929L35.596,16.865L35.605,202.774L275.413,202.774L275.411,130.777L164.31,130.777C163.289,130.777 162.329,130.373 161.612,129.657C160.897,128.941 160.485,127.974 160.485,126.96L160.501,15.929Z" style="fill:white;"/>
    </g>
</svg>
