<?xml version="1.0" encoding="UTF-8" standalone="no"?>
<!DOCTYPE svg PUBLIC "-//W3C//DTD SVG 1.1//EN" "http://www.w3.org/Graphics/SVG/1.1/DTD/svg11.dtd">
<svg width="100%" height="100%" viewBox="0 0 512 512" version="1.1" xmlns="http://www.w3.org/2000/svg" xmlns:xlink="http://www.w3.org/1999/xlink" xml:space="preserve" xmlns:serif="http://www.serif.com/" style="fill-rule:evenodd;clip-rule:evenodd;stroke-linejoin:round;stroke-miterlimit:1.41421;">
    <path d="M456,88L240,88L240,80C239.975,58.066 221.934,40.025 200,40L56,40C34.066,40.025 16.025,58.066 16,80L16,432C16.025,453.934 34.066,471.975 56,472L456,472C477.934,471.975 495.975,453.934 496,432L496,128C495.975,106.066 477.934,88.025 456,88ZM456,104C469.16,104.015 479.985,114.84 480,128L480,144.022C473.087,138.808 464.658,135.991 456,136L240,136L240,104L456,104ZM480,432C479.985,445.16 469.16,455.985 456,456L56,456C42.84,455.985 32.015,445.16 32,432L32,80C32.015,66.84 42.84,56.015 56,56L120,56L120,88L104,88C99.611,88 96,91.611 96,96C96,100.389 99.611,104 104,104L120,104L120,136L104,136C99.611,136 96,139.611 96,144C96,148.389 99.611,152 104,152L120,152L120,184L104,184C99.611,184 96,187.611 96,192C96,196.389 99.611,200 104,200L120,200L120,232L104,232C99.611,232 96,235.611 96,240C96,244.389 99.611,248 104,248L120,248L120,280L104,280C99.611,280 96,283.611 96,288C96,292.389 99.611,296 104,296L120,296L120,328L116,328C112.427,328.001 109.267,330.395 108.3,333.834L99.386,365.527C97.175,369.554 96.011,374.073 96,378.667C96,394.841 110.355,408 128,408C145.645,408 160,394.841 160,378.667C159.989,374.073 158.825,369.554 156.615,365.527L147.7,333.834C146.733,330.395 143.573,328.001 140,328L136,328L136,296L152,296C156.389,296 160,292.389 160,288C160,283.611 156.389,280 152,280L136,280L136,248L152,248C156.389,248 160,244.389 160,240C160,235.611 156.389,232 152,232L136,232L136,200L152,200C156.389,200 160,196.389 160,192C160,187.611 156.389,184 152,184L136,184L136,152L152,152C156.389,152 160,148.389 160,144C160,139.611 156.389,136 152,136L136,136L136,104L152,104C156.389,104 160,100.389 160,96C160,91.611 156.389,88 152,88L136,88L136,56L200,56C213.16,56.015 223.985,66.84 224,80L224,144C224,148.389 227.611,152 232,152L456,152C469.16,152.015 479.985,162.84 480,176L480,432ZM122.061,344L133.939,344L141.479,370.805C141.672,371.49 141.955,372.147 142.321,372.757C143.413,374.535 143.994,376.58 144,378.667C144,386.019 136.822,392 128,392C119.178,392 112,386.019 112,378.667C112.006,376.58 112.587,374.535 113.679,372.757C114.045,372.147 114.328,371.49 114.521,370.805L122.061,344Z" style="fill-rule:nonzero;"/>
</svg>
