<?xml version="1.0" encoding="UTF-8" standalone="no"?>
<!DOCTYPE svg PUBLIC "-//W3C//DTD SVG 1.1//EN" "http://www.w3.org/Graphics/SVG/1.1/DTD/svg11.dtd">
<svg width="100%" height="100%" viewBox="0 0 350 418" version="1.1" xmlns="http://www.w3.org/2000/svg" xmlns:xlink="http://www.w3.org/1999/xlink" xml:space="preserve" xmlns:serif="http://www.serif.com/" style="fill-rule:evenodd;clip-rule:evenodd;stroke-linejoin:round;stroke-miterlimit:1.41421;">
    <g>
        <g id="Elipse.svg" transform="matrix(1.19209,0,0,1.19209,-93.4155,-57.2833)">
            <path d="M301,290C330.624,290 355,314.376 355,344C355,373.624 330.624,398 301,398C271.376,398 247,373.624 247,344C247,314.376 271.376,290 301,290ZM286.941,341.809L294.669,356.904C294.669,356.904 307.229,326.226 327.034,316.004C326.551,323.304 324.619,329.639 328,337.43C319.305,339.378 301.432,361.291 295.636,372.004C287.424,361.778 277.763,353.987 271,351.552L286.941,341.809Z" style="fill:white;"/>
        </g>
        <path d="M194.324,375.42L36.405,375.42C34.257,375.42 31.149,374.757 29.168,373.867C28.742,373.684 28.361,373.417 28.025,373.088L23.044,368.108C22.709,367.78 22.451,367.392 22.253,366.966C21.368,364.992 20.714,361.877 20.714,359.712L20.714,16.736C20.714,14.579 21.368,11.464 22.268,9.5C22.451,9.073 22.709,8.692 23.044,8.364L28.025,3.36C28.361,3.017 28.757,2.751 29.198,2.56C31.179,1.684 34.288,1.029 36.405,1.029L167.402,1.029C170.022,1.029 173.297,2.384 175.171,4.243L287.095,116.161C288.969,118.041 290.317,121.316 290.317,123.953L290.317,282.495C282.512,279.695 274.122,278.167 265.404,278.167C238.141,278.167 214.094,293.106 201.069,315.177L35.611,315.177L35.613,359.6L36.526,360.529L191.178,360.524C191.716,365.656 192.784,370.64 194.324,375.42ZM160.106,290.497L160.106,228.01L148.438,228.01L148.438,290.497L160.106,290.497ZM192.819,268.501C196.881,268.501 200.431,267.997 203.471,266.989C206.51,265.981 209.038,264.569 211.055,262.754C213.071,260.939 214.584,258.771 215.592,256.25C216.6,253.73 217.105,250.957 217.105,247.932C217.105,245.022 216.622,242.343 215.657,239.894C214.692,237.445 213.215,235.342 211.228,233.585C209.24,231.828 206.719,230.459 203.665,229.48C200.611,228.5 196.996,228.01 192.819,228.01L172.508,228.01L172.508,290.497L184.133,290.497L184.133,268.501L192.819,268.501ZM107.515,281.206L139.58,235.919C140.329,234.824 140.703,233.614 140.703,232.289L140.703,228.01L94.465,228.01L94.465,237.258L125.665,237.258L93.514,282.762C93.197,283.223 92.938,283.72 92.736,284.253C92.535,284.786 92.434,285.34 92.434,285.916L92.434,290.497L139.969,290.497L139.969,281.206L107.515,281.206ZM192.819,236.999C194.979,236.999 196.852,237.251 198.436,237.755C200.021,238.259 201.332,238.987 202.369,239.937C203.406,240.888 204.184,242.04 204.702,243.394C205.221,244.748 205.48,246.261 205.48,247.932C205.48,249.689 205.221,251.281 204.702,252.707C204.184,254.133 203.399,255.343 202.347,256.337C201.296,257.331 199.978,258.094 198.393,258.627C196.809,259.16 194.951,259.427 192.819,259.427L184.133,259.427L184.133,236.999L192.819,236.999ZM160.501,15.929L36.526,15.929L35.596,16.865L35.605,202.774L275.413,202.774L275.411,130.777L164.31,130.777C163.289,130.777 162.329,130.373 161.612,129.657C160.897,128.941 160.485,127.974 160.485,126.96L160.501,15.929Z" style="fill:white;"/>
    </g>
</svg>
